<svg width="83" height="83" viewBox="0 0 83 83" fill="none" xmlns="http://www.w3.org/2000/svg">
<path d="M12.15 12.15C-4.05 28.35 -4.05 54.65 12.15 70.85C28.35 87.05 54.65 87.05 70.85 70.85C87.05 54.65 87.05 28.35 70.85 12.15C54.65 -4.05 28.25 -4.05 12.15 12.15ZM65.95 65.95C52.45 79.45 30.45 79.45 16.95 65.95C3.45 52.45 3.45 30.45 16.95 16.95C30.45 3.45 52.45 3.45 65.95 16.95C79.45 30.45 79.45 52.45 65.95 65.95Z" fill="#0072f4"/>
<path d="M41.45 21.75C39.55 21.75 38.05 23.25 38.05 25.15V38.15H25.05C23.15 38.15 21.65 39.65 21.65 41.55C21.65 43.45 23.15 44.95 25.05 44.95H38.05V57.95C38.05 59.85 39.55 61.35 41.45 61.35C42.35 61.35 43.25 60.95 43.85 60.35C44.45 59.75 44.85 58.85 44.85 57.95V44.95H57.85C58.75 44.95 59.65 44.55 60.25 43.95C60.85 43.35 61.25 42.45 61.25 41.55C61.25 39.65 59.75 38.15 57.85 38.15H44.85V25.15C44.85 23.25 43.35 21.75 41.45 21.75Z" fill="#0072f4"/>
</svg>
