<svg width="88" height="88" viewBox="0 0 88 88" fill="none" xmlns="http://www.w3.org/2000/svg">
<path d="M53.4601 44.0009L85.7041 11.7559C88.3141 9.14694 88.3141 4.90594 85.7041 2.29794C83.0911 -0.318063 78.8531 -0.318063 76.2451 2.29794L43.9971 34.5409L11.7571 2.29794C9.14614 -0.318063 4.90914 -0.318063 2.29614 2.29794C-0.314859 4.90894 -0.314859 9.14694 2.29614 11.7559L34.5441 44.0009L2.29614 76.2479C-0.314859 78.8589 -0.314859 83.0929 2.29614 85.7059C4.90914 88.3159 9.14814 88.3159 11.7571 85.7059L43.9971 53.4579L76.2451 85.7059C78.8531 88.3159 83.0911 88.3159 85.7061 85.7059C88.3141 83.0929 88.3141 78.8589 85.7061 76.2479L53.4601 44.0009Z" fill="black"/>
</svg>
