<svg width="56" height="40" viewBox="0 0 56 40" fill="none" xmlns="http://www.w3.org/2000/svg">
<path d="M50 0H6C2.69248 0 0 2.69248 0 6V34C0 37.3075 2.69248 40 6 40H50C53.3075 40 56 37.3075 56 34V6C56 2.69248 53.3075 0 50 0ZM48.6675 4L29.2026 18.5997C28.495 19.1297 27.5076 19.1297 26.8001 18.5997L7.3351 4H48.6701H48.6675ZM50 36H6C4.89498 36 4 35.1025 4 34V6.49984L24.4 21.7997C25.4575 22.5947 26.73 22.9922 28 22.9922C29.27 22.9922 30.5425 22.5947 31.6 21.7997L52 6.49984V34C52 35.1025 51.105 36 50 36Z" fill="#0072F4"/>
</svg>
