<svg width="30" height="30" viewBox="0 0 30 30" fill="none" xmlns="http://www.w3.org/2000/svg">
<path d="M26.0202 15.5007C26.0202 16.4086 26.0202 17.3132 26.0202 18.2211C26.0202 19.5912 26.0202 20.9612 26.0202 22.3313C26.0202 22.7869 26.0333 23.2425 25.9744 23.6948C25.9973 23.5211 26.0202 23.3474 26.0431 23.1704C25.9809 23.6096 25.8663 24.0324 25.6961 24.4421C25.7616 24.2848 25.8271 24.1274 25.8925 23.9734C25.7223 24.37 25.5063 24.7436 25.2444 25.0845C25.3459 24.9534 25.4506 24.819 25.5521 24.6879C25.2903 25.0255 24.9858 25.3303 24.6487 25.5925C24.7796 25.4909 24.9138 25.3861 25.0448 25.2844C24.7011 25.5467 24.3312 25.7663 23.9351 25.9334C24.0923 25.8679 24.2494 25.8023 24.4032 25.7368C23.9973 25.9072 23.5718 26.0219 23.1332 26.0842C23.3067 26.0612 23.4802 26.0383 23.6569 26.0154C22.9728 26.1039 22.2593 26.0612 21.5719 26.0612C20.2659 26.0612 18.9631 26.0612 17.6571 26.0612C16.0565 26.0612 14.4527 26.0612 12.8521 26.0612C11.4871 26.0612 10.1189 26.0612 8.75401 26.0612C8.15829 26.0612 7.56256 26.0645 6.97011 26.0612C6.74099 26.0612 6.51514 26.0449 6.28929 26.0154C6.46277 26.0383 6.63625 26.0612 6.813 26.0842C6.37439 26.0219 5.95215 25.9072 5.54299 25.7368C5.70011 25.8023 5.85722 25.8679 6.01106 25.9334C5.61501 25.763 5.24186 25.5467 4.90145 25.2844C5.03237 25.3861 5.16658 25.4909 5.2975 25.5925C4.96036 25.3303 4.65596 25.0255 4.3941 24.6879C4.49557 24.819 4.60031 24.9534 4.70178 25.0845C4.43992 24.7404 4.22062 24.37 4.05369 23.9734C4.11915 24.1307 4.18461 24.288 4.25008 24.4421C4.07987 24.0357 3.96531 23.6096 3.90312 23.1704C3.92603 23.3441 3.94894 23.5178 3.97185 23.6948C3.88348 23.0098 3.92603 22.2952 3.92603 21.6069C3.92603 20.2991 3.92603 18.9946 3.92603 17.6868C3.92603 16.0841 3.92603 14.478 3.92603 12.8752C3.92603 11.5085 3.92603 10.1384 3.92603 8.77163C3.92603 8.1751 3.92276 7.57856 3.92603 6.98531C3.92603 6.75587 3.9424 6.52971 3.97185 6.30356C3.94894 6.47727 3.92603 6.65099 3.90312 6.82798C3.96531 6.38877 4.07987 5.96596 4.25008 5.55625C4.18461 5.71358 4.11915 5.87091 4.05369 6.02496C4.22389 5.62836 4.43992 5.25471 4.70178 4.91383C4.60031 5.04494 4.49557 5.17932 4.3941 5.31043C4.65596 4.97283 4.96036 4.66801 5.2975 4.40579C5.16658 4.5074 5.03237 4.61229 4.90145 4.71389C5.24513 4.45168 5.61501 4.23208 6.01106 4.06492C5.85395 4.13047 5.69684 4.19602 5.54299 4.26158C5.94887 4.09114 6.37439 3.97642 6.813 3.91415C6.63952 3.93709 6.46604 3.96003 6.28929 3.98298C6.68534 3.93053 7.08468 3.93709 7.48401 3.93709C8.06336 3.93709 8.64272 3.93709 9.22208 3.93709C10.6361 3.93709 12.0534 3.93709 13.4674 3.93709C13.8013 3.93709 14.1384 3.93709 14.4723 3.93709C14.9764 3.93709 15.5034 3.71749 15.8601 3.36022C16.2006 3.01935 16.4559 2.45887 16.4362 1.9705C16.4133 1.46246 16.2464 0.93476 15.8601 0.580773C15.4772 0.226787 15.0026 0.00390625 14.4723 0.00390625C13.6442 0.00390625 12.8161 0.00390625 11.9912 0.00390625C10.6525 0.00390625 9.31373 0.00390625 7.97499 0.00390625C7.65094 0.00390625 7.32362 0.00390625 6.99957 0.00390625C5.86377 0.00390625 4.79016 0.282507 3.77546 0.783988C3.21247 1.06259 2.69203 1.45263 2.22724 1.87217C1.76899 2.28843 1.36966 2.79319 1.04233 3.31434C0.358234 4.39596 0.00800117 5.70702 0.00145476 6.98203C-0.00181845 7.4409 0.00145476 7.89977 0.00145476 8.36192C0.00145476 9.48943 0.00145476 10.6169 0.00145476 11.7445C0.00145476 13.1637 0.00145476 14.5796 0.00145476 15.9989C0.00145476 17.3296 0.00145476 18.6603 0.00145476 19.991C0.00145476 20.8563 0.00145476 21.7249 0.00145476 22.5902C0.00145476 22.7312 0.00145476 22.8721 0.00145476 23.0163C0.00472797 24.2323 0.325502 25.4483 0.931046 26.5037C2.16177 28.6506 4.51193 29.9879 6.97339 29.9977C7.48073 30.001 7.98808 29.9977 8.49543 29.9977C9.6476 29.9977 10.7998 29.9977 11.9519 29.9977C13.3725 29.9977 14.7931 29.9977 16.2137 29.9977C17.5262 29.9977 18.8388 29.9977 20.1513 29.9977C20.9794 29.9977 21.8076 29.9977 22.6357 29.9977C24.0792 29.9977 25.5128 29.7093 26.7337 28.8964C27.7713 28.2081 28.6878 27.2609 29.2181 26.1202C29.4865 25.5401 29.7222 24.9468 29.8204 24.311C29.8891 23.8685 29.948 23.426 29.948 22.977C29.948 22.0035 29.948 21.0333 29.948 20.0599C29.948 18.7685 29.948 17.4804 29.948 16.189C29.948 15.9595 29.948 15.7334 29.948 15.5039C29.948 14.9992 29.7287 14.4715 29.3719 14.1142C29.0315 13.7733 28.4718 13.5177 27.9841 13.5373C27.4768 13.5603 26.9498 13.7274 26.5963 14.1142C26.2428 14.4944 26.0202 14.9664 26.0202 15.5007Z" fill="#1A2231"/>
<path d="M20.7619 3.93514C21.5802 3.93514 22.4017 3.93514 23.22 3.93514C24.526 3.93514 25.8288 3.93514 27.1348 3.93514C27.4327 3.93514 27.7305 3.93514 28.0284 3.93514C28.5325 3.93514 29.0594 3.71553 29.4162 3.35827C29.7566 3.01739 30.0119 2.45692 29.9923 1.96854C29.9694 1.46051 29.8025 0.932807 29.4162 0.57882C29.0333 0.224833 28.5586 0.00195312 28.0284 0.00195312C27.2101 0.00195312 26.3885 0.00195312 25.5702 0.00195312C24.2642 0.00195312 22.9615 0.00195312 21.6554 0.00195312C21.3576 0.00195312 21.0597 0.00195312 20.7619 0.00195312C20.2578 0.00195312 19.7308 0.221556 19.374 0.57882C19.0336 0.919696 18.7783 1.48017 18.7979 1.96854C18.8208 2.47658 18.9878 3.00428 19.374 3.35827C19.757 3.71226 20.2283 3.93514 20.7619 3.93514Z" fill="#1A2231"/>
<path d="M29.9825 9.24404C29.9825 8.42463 29.9825 7.60194 29.9825 6.78253C29.9825 5.47474 29.9825 4.17024 29.9825 2.86245C29.9825 2.56419 29.9825 2.26592 29.9825 1.96765C29.9825 1.4629 29.7632 0.935193 29.4065 0.577929C29.066 0.237053 28.5063 -0.0186036 28.0186 0.00106236C27.5113 0.0240059 26.9843 0.191166 26.6308 0.577929C26.2773 0.961415 26.0547 1.43667 26.0547 1.96765C26.0547 2.78707 26.0547 3.60976 26.0547 4.42917C26.0547 5.73696 26.0547 7.04146 26.0547 8.34925C26.0547 8.64751 26.0547 8.94578 26.0547 9.24404C26.0547 9.7488 26.274 10.2765 26.6308 10.6338C26.9712 10.9746 27.5309 11.2303 28.0186 11.2106C28.526 11.1877 29.0529 11.0205 29.4065 10.6338C29.76 10.2503 29.9825 9.7783 29.9825 9.24404Z" fill="#1A2231"/>
<path d="M16.4377 16.3602C16.8698 15.9275 17.3051 15.4916 17.7372 15.059C18.7682 14.0265 19.8026 12.9908 20.8336 11.9583C22.0807 10.7095 23.3278 9.46074 24.5782 8.20867C25.6616 7.12377 26.7418 6.04215 27.8252 4.95724C28.3489 4.43282 28.8824 3.91167 29.3996 3.38069C29.4062 3.37414 29.4127 3.36758 29.4225 3.35775C29.7793 3.00048 29.9986 2.47278 29.9986 1.96802C29.9986 1.48621 29.7858 0.909341 29.4225 0.578298C29.0494 0.234144 28.5584 -0.0215129 28.0347 0.00143066C27.5142 0.0243742 27.0233 0.201367 26.6468 0.578298C26.2148 1.01095 25.7794 1.44688 25.3474 1.87953C24.3163 2.91199 23.282 3.94773 22.2509 4.98019C21.0038 6.22897 19.7567 7.47776 18.5064 8.72982C17.4229 9.81472 16.3428 10.8964 15.2593 11.9813C14.7356 12.5057 14.2021 13.0268 13.6849 13.5578C13.6784 13.5644 13.6718 13.5709 13.662 13.5807C13.3052 13.938 13.0859 14.4657 13.0859 14.9705C13.0859 15.4523 13.2987 16.0292 13.662 16.3602C14.0352 16.7044 14.5261 16.96 15.0499 16.9371C15.5703 16.9141 16.0646 16.7371 16.4377 16.3602Z" fill="#1A2231"/>
</svg>
