<svg width="51" height="51" viewBox="0 0 51 51" fill="none" xmlns="http://www.w3.org/2000/svg">
<path d="M49.0895 35.9604L42.945 29.8323C41.7316 28.5769 40.2652 27.9183 38.711 27.9183C37.1671 27.9183 35.6903 28.5769 34.4408 29.8169L31.2395 33.007C31.0794 32.9246 30.9245 32.8475 30.7799 32.7754C30.403 32.5902 30.0415 32.405 29.7317 32.2094C26.4839 30.1565 23.5253 27.4655 20.6802 23.9924C19.4255 22.4128 18.558 21.0854 17.9281 19.7785C18.7387 19.0221 19.5029 18.2503 20.2258 17.5094C20.5305 17.2007 20.8506 16.8817 21.1604 16.5729C22.4409 15.2969 23.1173 13.8099 23.1173 12.2766C23.1173 10.7331 22.4409 9.24607 21.1604 7.98033L18.1088 4.93947C17.7629 4.59473 17.4324 4.26029 17.0916 3.90527L17.0761 3.88983C16.41 3.20551 15.6923 2.48002 14.9746 1.81628C13.756 0.627724 12.2999 0 10.7612 0C9.23284 0 7.76125 0.632869 6.50654 1.82657L2.65977 5.65981C1.10557 7.1931 0.227783 9.06598 0.0470626 11.227C-0.159475 13.7996 0.310398 16.5163 1.52381 19.763C3.35167 24.7128 6.10379 29.2921 10.1829 34.1749C15.1243 40.0611 21.0933 44.7176 27.9142 48.0157L27.9194 48.0209C30.5579 49.266 34.0897 50.7273 37.9984 50.9794H38.0449C38.2721 50.9897 38.5044 51 38.7523 51C41.556 51 43.8176 50.0327 45.661 48.0415C45.6919 48.0054 45.7333 47.9643 45.7746 47.9077C46.2909 47.2954 46.8795 46.7191 47.5095 46.1171L47.6541 45.9782C48.2427 45.4174 48.7074 44.9543 49.1205 44.5272C50.3545 43.2461 51.0051 41.7591 51 40.2206C51 38.6771 50.339 37.2055 49.0895 35.9604ZM4.30691 11.5872C4.41018 10.4192 4.84907 9.48789 5.68038 8.6595L9.48585 4.86743C9.90409 4.4661 10.343 4.25 10.7509 4.25C11.2466 4.25 11.6855 4.58959 11.9643 4.87258L11.9953 4.90345C12.5736 5.43856 13.1312 6.00454 13.7199 6.60139L13.9884 6.87409C14.1639 7.05418 14.3447 7.23426 14.5254 7.41949C14.7009 7.59443 14.8765 7.77452 15.052 7.9546L18.114 11.0058C18.4341 11.3248 18.8162 11.8084 18.8162 12.2921C18.8162 12.7757 18.4341 13.2594 18.114 13.5784C17.9539 13.7379 17.7938 13.8974 17.6338 14.062C17.4789 14.2216 17.3188 14.3811 17.1587 14.5406L16.9419 14.7567C16.0796 15.6262 15.2586 16.4495 14.3756 17.2367L14.2879 17.3242C12.9505 18.6568 13.4101 20.0357 13.5598 20.4885C13.5701 20.5245 13.5805 20.5502 13.5908 20.5811L13.6114 20.6326C14.4479 22.6289 15.5942 24.4915 17.3291 26.668L17.3343 26.6731C20.4582 30.5115 23.7525 33.5009 27.4133 35.8214C27.8161 36.0838 28.224 36.2896 28.6216 36.4852C28.6939 36.5212 28.7713 36.5572 28.8436 36.5984L28.8488 36.6035C29.2257 36.7887 29.5871 36.974 29.897 37.1695L29.9899 37.2209C30.0209 37.2364 30.0519 37.257 30.0828 37.2724C30.5372 37.5039 31.0071 37.6223 31.477 37.6223C32.2721 37.6223 32.995 37.3033 33.625 36.6704L37.4562 32.8526C37.7557 32.5542 38.2101 32.2043 38.7058 32.2043C39.2118 32.2043 39.6507 32.5953 39.8727 32.832L39.8831 32.8423L46.0689 38.9961C46.957 39.8811 46.9415 40.6631 46.0276 41.6099L46.0172 41.6202C45.5835 42.0832 45.124 42.5257 44.6902 42.9425L44.5663 43.0608C43.8744 43.7297 43.1619 44.4192 42.4958 45.2116C41.4837 46.2921 40.3323 46.7706 38.7626 46.7706C38.618 46.7706 38.4528 46.7603 38.2876 46.75C35.0811 46.5442 32.0604 45.2836 29.7834 44.2031C23.5149 41.1777 18.0262 36.8968 13.4772 31.4737C9.72337 26.9715 7.2036 22.7884 5.53581 18.3069C4.54959 15.6622 4.152 13.5218 4.30691 11.5872Z" fill="#0072F4"/>
</svg>
