<svg width="149" height="22" viewBox="0 0 149 22" fill="none" xmlns="http://www.w3.org/2000/svg">
<path d="M3.94636 0.136719H18.339C20.5185 0.136719 22.2853 1.90356 22.2853 4.08308V17.9185C22.2853 20.0981 20.5185 21.8649 18.339 21.8649H3.94636C1.76684 21.8649 0 20.0981 0 17.9186V4.08308C0 1.90356 1.76684 0.136719 3.94636 0.136719Z" fill="#584CCC"/>
<path d="M17.8442 12.7182C16.801 11.6092 13.9156 12.0603 13.2389 12.1731C12.2427 11.2051 11.5472 10.0584 11.3122 9.6355C11.6881 8.56406 11.9325 7.42684 11.9701 6.30841C11.9701 5.29336 11.566 4.20312 10.4381 4.20312C10.0434 4.21252 9.68626 4.42869 9.48888 4.75764C9.00956 5.58472 9.19753 7.29526 9.96821 9.02459C9.51708 10.2934 8.86858 12.1261 8.01331 13.6111C6.85729 14.0716 4.40426 15.1995 4.1693 16.4495C4.09411 16.816 4.22569 17.1919 4.50764 17.4457C4.7802 17.6901 5.13735 17.8123 5.50389 17.8029C6.97947 17.8029 8.45504 15.754 9.45129 13.9964C10.2878 13.7051 11.6224 13.3197 12.9664 13.0754C14.5265 14.4382 15.9175 14.6449 16.6224 14.6449C17.5811 14.6449 17.9382 14.2314 18.0698 13.8837C18.2108 13.4889 18.1262 13.0378 17.8442 12.7182ZM16.8292 13.4325C16.7822 13.7051 16.4344 13.9776 15.7859 13.8367C15.034 13.6487 14.3291 13.2915 13.737 12.8028C14.2446 12.7182 15.4288 12.6055 16.2653 12.7652C16.566 12.8216 16.9138 12.9908 16.8292 13.4325ZM10.0998 5.11479C10.1656 4.99261 10.2878 4.90802 10.4287 4.90802C10.7859 4.90802 10.8611 5.34035 10.8611 5.6975C10.8141 6.55277 10.6261 7.42684 10.3911 8.20692C9.78963 6.60916 9.87422 5.50013 10.0998 5.11479ZM10.0152 12.925C10.3348 12.2953 10.7859 11.1487 10.9457 10.6881C11.3028 11.2803 11.9043 12.0227 12.2239 12.3611C12.2333 12.3517 11.0021 12.6054 10.0152 12.925ZM7.65616 14.5416C6.7069 16.0641 5.77645 17.0228 5.23133 17.0228C5.14674 17.0228 5.05276 16.9946 4.98697 16.9382C4.88358 16.8536 4.83659 16.722 4.86479 16.5904C4.96816 16.0453 6.049 15.2558 7.65616 14.5416Z" fill="white"/>
<path d="M31.0759 13.1212L30.3612 15.3248C30.3313 15.3991 30.2867 15.4439 30.1973 15.4439H28.4703C28.366 15.4439 28.3363 15.3841 28.3513 15.2949L31.329 6.70383C31.3885 6.54017 31.4481 6.36138 31.4779 5.79573C31.4779 5.7362 31.5225 5.69141 31.5671 5.69141H33.9493C34.0238 5.69141 34.0537 5.70634 34.0686 5.7808L37.4483 15.3099C37.478 15.3841 37.4632 15.4439 37.3738 15.4439H35.4382C35.349 15.4439 35.3042 15.414 35.2745 15.3397L34.5152 13.1212H31.0759ZM33.9643 11.2598C33.6664 10.2773 33.0709 8.47561 32.788 7.41859H32.7733C32.5349 8.41607 31.999 10.0539 31.6119 11.2598H33.9643Z" fill="black"/>
<path d="M37.5469 11.81C37.5469 9.68102 39.1401 7.89431 41.8647 7.89431C41.9838 7.89431 42.1327 7.90924 42.3561 7.92397V4.99105C42.3561 4.91658 42.4007 4.88672 42.4602 4.88672H44.3363C44.4108 4.88672 44.4255 4.91658 44.4255 4.97611V13.7755C44.4255 14.1177 44.4405 14.5645 44.4853 14.8624C44.4853 14.9366 44.4703 14.9665 44.3809 14.9964C43.3536 15.4282 42.371 15.5921 41.4478 15.5921C39.2442 15.5921 37.5469 14.3413 37.5469 11.81ZM42.3561 9.69575C42.2072 9.63622 42.0137 9.62149 41.8052 9.62149C40.6588 9.62149 39.676 10.3211 39.676 11.7059C39.676 13.1798 40.5248 13.8203 41.6563 13.8203C41.9093 13.8203 42.1477 13.8054 42.3561 13.7307L42.3561 9.69575Z" fill="black"/>
<path d="M52.8169 11.7061C52.8169 14.0437 51.2982 15.5923 49.1541 15.5923C46.6082 15.5923 45.4766 13.6716 45.4766 11.7509C45.4766 9.63645 46.8912 7.89453 49.184 7.89453C51.5811 7.89453 52.8169 9.69598 52.8169 11.7061ZM47.5761 11.721C47.5761 13.0311 48.1865 13.8649 49.184 13.8649C50.0475 13.8649 50.7027 13.1207 50.7027 11.7509C50.7027 10.5893 50.2263 9.62171 49.0946 9.62171C48.2311 9.62171 47.5761 10.3958 47.5761 11.721Z" fill="black"/>
<path d="M55.8074 4.88672C55.9265 4.88672 55.9562 4.90165 55.9562 5.00578V8.05817C56.3434 7.95384 56.7603 7.89431 57.2069 7.89431C59.3956 7.89431 60.7803 9.4427 60.7803 11.4379C60.7803 14.2223 58.5767 15.5921 56.3135 15.5921C55.5245 15.5921 54.7353 15.4875 53.9761 15.2494C53.9313 15.2345 53.8867 15.1602 53.8867 15.1005V4.99105C53.8867 4.91658 53.9164 4.88672 53.9908 4.88672H55.8074ZM56.8348 9.65116C56.3583 9.65116 56.1499 9.72562 55.9562 9.77022V13.8054C56.135 13.8498 56.3285 13.8647 56.5071 13.8647C57.6387 13.8647 58.6661 13.1798 58.6661 11.6316C58.6661 10.2765 57.8769 9.65116 56.8348 9.65116Z" fill="black"/>
<path d="M63.5556 12.2868C63.6301 13.1356 64.2258 13.8354 65.6848 13.8354C66.3548 13.8354 66.9503 13.7309 67.5161 13.4928C67.5609 13.4629 67.6055 13.4779 67.6055 13.5674V14.9817C67.6055 15.0858 67.5756 15.1306 67.5012 15.1604C66.9057 15.4434 66.2506 15.5923 65.2233 15.5923C62.4242 15.5923 61.4414 13.6716 61.4414 11.8251C61.4414 9.77044 62.7071 7.89453 65.0445 7.89453C67.2927 7.89453 68.1861 9.63645 68.1861 11.1106C68.1861 11.5721 68.1564 11.9442 68.1116 12.1081C68.0969 12.1827 68.067 12.2122 67.9926 12.2271C67.799 12.257 67.2332 12.2869 66.4591 12.2869L63.5556 12.2868ZM65.4913 10.8426C65.9677 10.8426 66.1762 10.8276 66.2357 10.8127C66.2357 10.7829 66.2357 10.7233 66.2357 10.7086C66.2357 10.3512 65.9528 9.53231 64.9702 9.53231C64.0321 9.53231 63.6301 10.2321 63.5409 10.8426H65.4913Z" fill="black"/>
<path d="M74.4549 13.1212L73.7401 15.3248C73.7102 15.3991 73.6656 15.4439 73.5762 15.4439H71.8492C71.7449 15.4439 71.7152 15.3841 71.7302 15.2949L74.7079 6.70383C74.7674 6.54017 74.827 6.36138 74.8568 5.79573C74.8568 5.7362 74.9014 5.69141 74.946 5.69141H77.3283C77.4027 5.69141 77.4326 5.70634 77.4475 5.7808L80.8272 15.3099C80.8567 15.3841 80.8421 15.4439 80.7529 15.4439H78.8171C78.7279 15.4439 78.6831 15.414 78.6534 15.3397L77.8941 13.1212H74.4549ZM77.3432 11.2598C77.0453 10.2773 76.4498 8.47561 76.1669 7.41859H76.1522C75.9139 8.41607 75.3779 10.0539 74.9908 11.2598H77.3432Z" fill="black"/>
<path d="M86.5987 15.2347C86.5987 15.3094 86.5838 15.3392 86.524 15.3538C86.0478 15.5475 85.4372 15.5923 84.8564 15.5923C82.4445 15.5923 80.9258 13.9694 80.9258 11.7807C80.9258 9.54725 82.6084 7.89453 85.1393 7.89453C85.869 7.89453 86.271 7.96899 86.5091 8.05839C86.5838 8.08806 86.5987 8.13266 86.5987 8.22205L86.5838 9.75571C86.5838 9.85984 86.524 9.87477 86.4643 9.85984C86.1814 9.75571 85.7649 9.68124 85.214 9.68124C83.9632 9.68124 83.0551 10.3661 83.0551 11.7061C83.0551 13.2547 84.2014 13.7608 85.2438 13.7608C85.7649 13.7608 86.2262 13.7015 86.4792 13.6268C86.5688 13.5969 86.5987 13.6268 86.5987 13.6865V15.2347Z" fill="black"/>
<path d="M89.3488 8.04345C89.4533 8.04345 89.4981 8.08805 89.5276 8.17745C89.6018 8.37097 89.6765 8.68356 89.6914 9.01128C90.1826 8.43051 91.0015 7.89453 92.0585 7.89453C92.1481 7.89453 92.178 7.9242 92.178 8.01359V9.84491C92.178 9.91937 92.1481 9.94923 92.0436 9.94923C90.9716 9.90444 90.1083 10.2322 89.7955 10.5893L89.7806 15.3243C89.7806 15.4135 89.7511 15.4434 89.6466 15.4434H87.8603C87.7408 15.4434 87.711 15.3986 87.711 15.3094V10.1724C87.711 9.53232 87.6961 8.66883 87.6367 8.14759C87.6367 8.07312 87.6517 8.04346 87.7259 8.04346L89.3488 8.04345Z" fill="black"/>
<path d="M99.8011 11.7061C99.8011 14.0437 98.2828 15.5923 96.1385 15.5923C93.5926 15.5923 92.4609 13.6716 92.4609 11.7509C92.4609 9.63645 93.8755 7.89453 96.1684 7.89453C98.5657 7.89453 99.8011 9.69598 99.8011 11.7061ZM94.5604 11.721C94.5604 13.0311 95.1707 13.8649 96.1684 13.8649C97.0317 13.8649 97.6871 13.1207 97.6871 11.7509C97.6871 10.5893 97.2108 9.62171 96.0792 9.62171C95.2155 9.62171 94.5604 10.3958 94.5604 11.721Z" fill="black"/>
<path d="M102.792 4.88672C102.911 4.88672 102.941 4.90165 102.941 5.00578V8.05817C103.328 7.95384 103.745 7.89431 104.191 7.89431C106.38 7.89431 107.765 9.4427 107.765 11.4379C107.765 14.2223 105.561 15.5921 103.298 15.5921C102.509 15.5921 101.72 15.4875 100.961 15.2494C100.916 15.2345 100.871 15.1602 100.871 15.1005V4.99105C100.871 4.91658 100.901 4.88672 100.976 4.88672H102.792ZM103.819 9.65116C103.343 9.65116 103.134 9.72562 102.941 9.77022V13.8054C103.12 13.8498 103.313 13.8647 103.492 13.8647C104.623 13.8647 105.651 13.1798 105.651 11.6316C105.651 10.2765 104.861 9.65116 103.819 9.65116Z" fill="black"/>
<path d="M114.601 13.7906C114.601 14.1777 114.601 14.4905 114.631 14.8477C114.631 14.8775 114.631 14.9074 114.601 14.9223C113.29 15.4284 112.427 15.5923 111.355 15.5923C109.703 15.5923 108.348 14.8327 108.348 13.1057C108.348 11.5277 109.732 10.6937 111.712 10.6937C112.114 10.6937 112.457 10.6937 112.591 10.7233V10.6192C112.591 10.3363 112.412 9.68124 111.162 9.68124C110.417 9.68124 109.762 9.82997 109.196 10.0832C109.137 10.1129 109.062 10.0832 109.062 10.0088V8.50497C109.062 8.43051 109.077 8.38591 109.167 8.35604C109.821 8.04345 110.67 7.89453 111.504 7.89453C113.648 7.89453 114.601 9.21954 114.601 10.9171V13.7906ZM112.591 12.257C112.353 12.2271 112.144 12.2122 111.846 12.2122C110.789 12.2122 110.357 12.5548 110.357 13.0908C110.357 13.582 110.73 13.984 111.668 13.984C112.01 13.984 112.308 13.9396 112.591 13.85V12.257Z" fill="black"/>
<path d="M119.696 15.1917C119.696 15.2809 119.681 15.3552 119.592 15.3851C119.175 15.534 118.788 15.5937 118.266 15.5937C116.971 15.5937 116.212 14.9532 116.212 13.4644V9.77188H115.318C115.229 9.75714 115.199 9.72728 115.199 9.63789V8.17889C115.199 8.07456 115.229 8.04489 115.333 8.04489H116.227C116.242 7.53858 116.301 6.66016 116.375 6.24325C116.39 6.16878 116.435 6.12418 116.51 6.10925L118.252 5.88586C118.326 5.87113 118.371 5.87113 118.371 5.97526C118.326 6.43677 118.296 7.31519 118.296 8.04489H119.666C119.755 8.04489 119.785 8.07455 119.785 8.16395V9.66774C119.785 9.7422 119.755 9.75714 119.681 9.77187H118.281V12.9583C118.281 13.6133 118.475 13.9111 119.085 13.9111C119.264 13.9111 119.413 13.8813 119.592 13.8514C119.651 13.8514 119.696 13.8663 119.696 13.9559V15.1917Z" fill="black"/>
<path d="M123.731 15.0718C123.656 15.0274 123.626 14.9528 123.626 14.8337V13.0619C123.626 12.9877 123.686 12.9429 123.745 12.9877C124.564 13.5087 125.547 13.7618 126.44 13.7618C127.572 13.7618 128.019 13.3747 128.019 12.8537C128.019 12.377 127.676 12.0348 126.664 11.6029L125.919 11.2902C124.088 10.5159 123.582 9.59284 123.582 8.43149C123.582 6.82357 124.803 5.54297 127.17 5.54297C128.108 5.54297 128.957 5.66223 129.493 5.93021C129.567 5.97481 129.582 6.03434 129.582 6.12374V7.79119C129.582 7.85092 129.537 7.92519 129.448 7.86566C128.852 7.52321 128.033 7.37448 127.155 7.37448C126.009 7.37448 125.606 7.76153 125.606 8.25291C125.606 8.71442 125.919 9.027 127.036 9.47378L127.587 9.69697C129.567 10.5159 130.118 11.454 130.118 12.66C130.118 14.4616 128.659 15.5933 126.366 15.5933C125.264 15.5933 124.356 15.3996 123.731 15.0718Z" fill="black"/>
<path d="M131.129 6.09172C131.129 5.42176 131.62 4.94531 132.29 4.94531C133.005 4.94531 133.437 5.42176 133.437 6.09172C133.437 6.79156 132.975 7.25307 132.276 7.25307C131.576 7.25307 131.129 6.79156 131.129 6.09172ZM131.233 8.16136C131.233 8.0869 131.263 8.0423 131.352 8.0423H133.184C133.273 8.0423 133.303 8.07196 133.303 8.16136V15.3082C133.303 15.3974 133.288 15.4422 133.169 15.4422H131.382C131.278 15.4422 131.233 15.3974 131.233 15.3082V8.16136Z" fill="black"/>
<path d="M138.688 13.716C140.817 13.8205 141.606 14.6838 141.606 15.8603C141.606 17.4085 140.088 18.6592 137.691 18.6592C135.204 18.6592 134.117 17.4234 134.117 16.3515C134.117 15.8752 134.505 15.2795 135.487 14.4606C135.264 14.1329 135.159 13.7309 135.174 13.3439C135.174 13.0016 135.279 12.659 135.442 12.3611C134.832 11.9741 134.415 11.3638 134.415 10.4404C134.415 9.01128 135.532 7.89453 137.467 7.89453C138.018 7.89453 138.539 7.95406 138.882 8.01359C139.016 8.04346 139.135 8.04346 139.239 8.04346H141.279C141.353 8.04346 141.383 8.07312 141.383 8.14759V9.53232C141.383 9.60679 141.353 9.63645 141.279 9.63645C141.055 9.63645 140.564 9.59185 140.251 9.56199C140.371 9.77045 140.475 10.0832 140.475 10.5298C140.475 12.1081 139.179 12.8971 137.527 12.8971C137.363 12.8971 137.185 12.8826 137.021 12.8676C136.976 12.9867 136.961 13.1356 136.991 13.2696C137.006 13.4036 137.065 13.5376 137.155 13.6567L138.688 13.716ZM136.574 15.3836C136.246 15.6218 136.008 16.0237 136.008 16.1727C136.008 16.6344 136.663 17.1405 137.825 17.1405C139.15 17.1405 139.715 16.6792 139.715 16.1876C139.715 15.6367 139.06 15.4878 138.227 15.4434L136.574 15.3836ZM136.425 10.4107C136.425 10.9913 136.797 11.4232 137.482 11.4232C138.137 11.4232 138.51 11.0658 138.51 10.4553C138.51 9.82998 138.212 9.3834 137.467 9.3834C136.827 9.3834 136.425 9.75571 136.425 10.4107Z" fill="black"/>
<path d="M142.258 9.77044C142.258 9.26433 142.228 8.49004 142.199 8.16252C142.184 8.08806 142.214 8.04346 142.303 8.04346H143.866C143.986 8.04346 144.03 8.08806 144.06 8.16252C144.12 8.29651 144.149 8.44544 144.179 8.65389C144.805 8.14759 145.504 7.89453 146.293 7.89453C147.44 7.89453 148.795 8.49004 148.795 10.8872V15.3094C148.795 15.3986 148.765 15.4434 148.661 15.4434H146.874C146.77 15.4434 146.725 15.3986 146.725 15.3094V11.0658C146.725 10.1724 146.338 9.69598 145.564 9.69598C145.058 9.69598 144.641 9.87477 144.328 10.1577V15.3243C144.328 15.3986 144.284 15.4434 144.194 15.4434H142.393C142.288 15.4434 142.258 15.3986 142.258 15.3094V9.77044Z" fill="black"/>
</svg>
