<svg width="200" height="53" viewBox="0 0 200 53" fill="none" xmlns="http://www.w3.org/2000/svg">
<path d="M30.3992 35.7999C29.8992 35.3998 29.2994 35.0999 28.5994 34.8998C27.8994 34.6999 27.1994 34.5998 26.5994 34.5998C26.0994 34.5998 25.5992 34.6999 25.0992 34.7997C24.5992 34.8999 24.0992 35.0998 23.6992 35.2997C23.2992 35.4997 22.8992 35.7998 22.4992 36.1997C22.0992 36.5997 21.8992 36.9998 21.6992 37.3998C21.6992 36.6998 21.4992 36.1997 21.0992 35.7997C20.7991 35.3997 20.2993 35.0997 19.7993 34.8997C19.2992 34.6998 18.6994 34.5996 18.0994 34.5996C17.4994 34.5996 16.8992 34.6998 16.1992 34.7996V37.3995C16.5992 37.3995 16.9992 37.3996 17.1992 37.4998C17.4993 37.5999 17.5994 37.6997 17.6994 37.8998C17.7995 38.0997 17.8991 38.2998 17.8991 38.5998C17.8991 38.8999 17.8991 39.1997 17.8991 39.5997V51.6998H21.6992V41.9997C21.6992 41.2998 21.7993 40.6997 22.0992 40.1997C22.2991 39.6997 22.5993 39.2997 22.9993 38.9997C23.3993 38.6996 23.8994 38.3997 24.3993 38.2998C24.8993 38.1996 25.4991 37.9997 25.9991 37.9997C26.9992 37.9997 27.8993 38.1996 28.6993 38.5997L30.3992 35.7999Z" fill="#00A6CA"/>
<path d="M47.0994 49.1002C46.7994 49 46.6993 48.8 46.5993 48.6001C46.4992 48.4001 46.3996 48.1001 46.3996 47.8002C46.3996 47.5001 46.3996 47.2002 46.3996 46.8001V36.2001C45.2996 35.7001 44.1995 35.3001 42.9995 35.1001C41.8995 34.8 40.6996 34.7002 39.4996 34.7002C38.0995 34.7002 36.8995 34.9 35.6995 35.3001C34.5995 35.7001 33.5995 36.3001 32.6995 37.1001C31.7995 37.9001 31.1995 38.8002 30.6994 40.0002C30.1994 41.1002 29.8994 42.4001 29.8994 43.8001C29.8994 45.0001 29.9997 46.1002 30.3995 47.1002C30.6996 48.1001 31.1996 49.0001 31.7996 49.8001C32.3996 50.6001 33.1996 51.2001 34.1996 51.6001C35.1996 52.0001 36.2995 52.2001 37.4995 52.2001C38.6995 52.2001 39.8995 51.9 40.9995 51.2001C42.0995 50.6001 42.8994 49.7002 43.2994 48.5002C43.2994 49.4002 43.3995 50.1001 43.6994 50.6001C43.9995 51.1001 44.2995 51.5001 44.7995 51.7001C45.2995 52.0002 45.7996 52.1001 46.3996 52.1001C46.9996 52.1001 47.5996 52.1002 48.1996 51.9002V49.1002C47.6996 49.2003 47.2995 49.2003 47.0994 49.1002ZM42.6994 43.3001C42.6994 44.9001 42.2994 46.1002 41.4994 47.1002C40.7994 48.1001 39.6993 48.6001 38.2993 48.6001C36.6993 48.6001 35.5993 48.1001 34.7994 47.2002C33.9994 46.3001 33.6995 45.1001 33.6995 43.5001C33.6995 42.6001 33.8993 41.8002 34.1994 41.0002C34.4995 40.3002 34.7995 39.6001 35.2995 39.1001C35.7995 38.6002 36.2994 38.2001 36.9994 37.9001C37.5994 37.6 38.3995 37.5001 39.1994 37.5001C39.6994 37.5001 40.2994 37.5001 40.8994 37.6002C41.4994 37.7004 42.0994 37.9003 42.6994 38.1002V43.3001Z" fill="#00A6CA"/>
<path d="M65.1995 36.7C64.6995 36.1 63.9996 35.6 63.0996 35.2C62.2996 34.8 61.2995 34.6001 60.0995 34.6001C59.4995 34.6001 58.9996 34.6001 58.3996 34.7002C57.7996 34.8004 57.2996 35.0003 56.7996 35.2002C56.2996 35.4002 55.7996 35.7001 55.3996 36.1001C54.9996 36.5001 54.5996 36.9001 54.3996 37.5001C54.3996 36.7001 54.1995 36.1002 53.8995 35.7002C53.5994 35.3002 53.1994 35.0002 52.6994 34.8002C52.1994 34.7001 51.5995 34.6002 50.9995 34.6002C50.3995 34.6002 49.6996 34.7004 49.0996 34.8002V37.4001C49.4996 37.4001 49.8996 37.4002 50.0996 37.5004C50.3997 37.6005 50.4995 37.7003 50.5995 37.9004C50.6997 38.1003 50.7995 38.3003 50.7995 38.6003C50.7995 38.9004 50.7995 39.3003 50.7995 39.8003V51.7004H54.5996V42.2003C54.5996 41.5003 54.6992 40.9003 54.8995 40.4003C55.0994 39.8003 55.3996 39.4003 55.7996 39.0003C56.1996 38.6003 56.5995 38.3004 57.0995 38.1004C57.5995 37.9004 58.1996 37.8003 58.7996 37.8003C59.8996 37.8003 60.8997 38.2003 61.5997 38.9003C62.3997 39.6002 62.6996 40.7002 62.6996 42.0002V51.8002H66.4996V42.0002C66.4996 41.0002 66.3995 40.0003 66.0996 39.1003C66.1998 38.1003 65.7994 37.4 65.1995 36.7Z" fill="#00A6CA"/>
<path d="M82.1992 42.9999C81.5992 42.5999 80.7992 42.3999 79.9992 42.1999C79.1992 42 78.2991 41.8999 77.3991 41.8C76.0991 41.6001 75.0993 41.4 74.3993 41.2C73.6993 40.8999 73.3993 40.5 73.3993 39.8C73.3993 39.4 73.4992 39.0999 73.6992 38.8C73.8991 38.4999 74.0992 38.3 74.4992 38.0999C74.7993 37.9 75.1993 37.6999 75.5993 37.5999C75.9993 37.4998 76.4992 37.4 76.8992 37.4C77.2992 37.4 77.7994 37.4 78.1994 37.5002C78.6994 37.6003 79.0992 37.7001 79.3991 37.9002C79.7992 38.1001 79.9993 38.3002 80.2993 38.6002C80.4992 38.9003 80.6993 39.2002 80.6993 39.6002H83.9992C83.9992 38.8002 83.8992 38.0002 83.4993 37.4002C83.0993 36.8002 82.5992 36.3001 81.9992 35.8001C81.2992 35.4001 80.5992 35.0001 79.6993 34.8001C78.7992 34.6002 77.8992 34.5 76.8992 34.5C75.9992 34.5 75.0993 34.6002 74.1993 34.8001C73.2993 35.0001 72.5994 35.3001 71.8994 35.8001C71.1994 36.2001 70.6994 36.8002 70.2994 37.4002C69.8994 38.0002 69.6993 38.8002 69.6993 39.7002C69.6993 40.7002 69.9993 41.4001 70.3992 42.0001C70.8992 42.6001 71.3992 43.0002 72.0991 43.3001C72.7992 43.6002 73.5992 43.8001 74.4992 44.0001C75.3992 44.1003 76.1992 44.3003 77.0992 44.4002C78.1992 44.5003 79.0994 44.8002 79.7994 45.1002C80.4993 45.4003 80.7992 45.9002 80.7992 46.7002C80.7992 47.2002 80.699 47.6001 80.3992 48.0001C80.0991 48.3002 79.7993 48.6001 79.4993 48.8001C79.0993 49 78.6994 49.1002 78.1994 49.2001C77.6994 49.3003 77.2993 49.3003 76.7993 49.3003C76.2993 49.3003 75.8993 49.2001 75.3993 49.2001C74.9993 49.1 74.5993 48.9 74.1993 48.7001C73.7993 48.5002 73.5992 48.2002 73.2992 47.9002C73.0992 47.6001 72.8992 47.2002 72.8992 46.8002H69.1992C69.2994 47.8002 69.4993 48.7001 69.9992 49.4001C70.4992 50.1001 70.9992 50.6002 71.7993 51.0001C72.4993 51.4002 73.2993 51.7001 74.1993 51.9002C75.0993 52.1001 75.9992 52.2003 76.8992 52.2003C77.7992 52.2003 78.6991 52.1001 79.5991 51.9002C80.4991 51.7002 81.2993 51.4001 81.8993 50.9001C82.4993 50.4001 83.0993 49.9001 83.4993 49.3001C83.8993 48.6001 84.0993 47.8002 84.0993 46.9002C84.0993 45.9002 83.8994 45.1002 83.4993 44.5002C83.2994 43.8001 82.7992 43.3999 82.1992 42.9999Z" fill="#00A6CA"/>
<path d="M124.6 36.7C124.1 36.1 123.4 35.6 122.5 35.2C121.7 34.8 120.7 34.6001 119.5 34.6001C118.9 34.6001 118.4 34.6001 117.8 34.7002C117.2 34.8004 116.7 35.0003 116.2 35.2002C115.7 35.4002 115.2 35.7001 114.8 36.1001C114.4 36.5001 114 36.9001 113.8 37.5001C113.8 36.7001 113.6 36.1002 113.3 35.7002C112.999 35.3002 112.6 35.0002 112.1 34.8002C111.6 34.7001 111 34.6002 110.4 34.6002C109.8 34.6002 109.1 34.7004 108.6 34.8002V37.4001C109 37.4001 109.4 37.4002 109.6 37.5004C109.9 37.6005 110 37.7003 110.1 37.9004C110.2 38.1003 110.3 38.3003 110.3 38.6003C110.3 38.9004 110.3 39.3003 110.3 39.8003V51.7004H114.1V42.2003C114.1 41.5003 114.2 40.9003 114.4 40.4003C114.6 39.8003 114.9 39.4003 115.3 39.0003C115.7 38.6003 116.1 38.3004 116.6 38.1004C117.1 37.9004 117.7 37.8003 118.3 37.8003C119.4 37.8003 120.4 38.2003 121.1 38.9003C121.9 39.6002 122.2 40.7002 122.2 42.0002V51.8002H126V42.0002C126 41.0002 125.9 40.0003 125.6 39.1003C125.6 38.1003 125.2 37.4 124.6 36.7Z" fill="#00A6CA"/>
<path d="M131.3 27.6001C130.7 27.6001 130.2 27.8 129.7 28.2001C129.2 28.6001 129 29.1001 129 29.9001C129 30.7001 129.3 31.2001 129.7 31.6002C130.2 32.0001 130.7 32.2002 131.3 32.1002C131.9 32.1002 132.4 31.9002 132.8 31.5002C133.3 31.1002 133.5 30.6001 133.5 29.8001C133.5 29.0001 133.3 28.5001 132.8 28.1001C132.4 27.7001 131.9 27.6001 131.3 27.6001Z" fill="#00A6CA"/>
<path d="M133.2 35H129.4V51.8H133.2V35Z" fill="#00A6CA"/>
<path d="M150.9 36.8001C150.1 36.1001 149.1 35.6001 148 35.2001C146.9 34.8001 145.8 34.7002 144.6 34.7002C143.5 34.7002 142.4 34.9 141.4 35.2001C140.4 35.6001 139.4 36.1001 138.6 36.8001C137.8 37.5001 137.1 38.4001 136.6 39.5002C136.1 40.6001 135.8 41.8001 135.8 43.3001C135.8 44.8001 136.1 46.1002 136.6 47.1002C137.1 48.2001 137.8 49.1001 138.6 49.9001C139.4 50.6001 140.4 51.2001 141.4 51.5001C142.5 51.9001 143.5 52.0001 144.7 52.0001C145.8 52.0001 146.9 51.8002 148 51.5001C149.1 51.2 150 50.6001 150.8 49.9001C151.6 49.2001 152.3 48.3002 152.8 47.1002C153.3 46.0002 153.6 44.7001 153.6 43.3001C153.6 41.8001 153.3 40.6001 152.8 39.5002C152.4 38.4001 151.7 37.5001 150.9 36.8001ZM149.4 45.7001C149.1 46.4001 148.7 46.9002 148.3 47.4002C147.9 47.9002 147.3 48.2002 146.7 48.4002C146.1 48.6001 145.5 48.8002 144.9 48.8002C144.3 48.8002 143.6 48.7 143 48.5001C142.4 48.3001 141.8 47.9001 141.4 47.5C140.9 47.0001 140.5 46.5 140.2 45.8C139.9 45.1 139.8 44.3 139.8 43.4C139.8 42.5 139.9 41.8001 140.2 41.1001C140.5 40.4001 140.8 39.9 141.3 39.5C141.8 39.1 142.3 38.7 142.9 38.5C143.5 38.3001 144.1 38.1999 144.7 38.1C145.3 38.1 146 38.2002 146.6 38.4001C147.2 38.6001 147.8 38.9002 148.3 39.4002C148.8 39.8001 149.2 40.4002 149.5 41.1002C149.8 41.8002 150 42.6001 150 43.5001C149.9 44.2001 149.7 45.0001 149.4 45.7001Z" fill="#00A6CA"/>
<path d="M0 31V27.3999H18.0999V31H10.9999V51.7999H6.99988V31H0Z" fill="#00A6CA"/>
<path d="M87.2002 43.5999V27.3999H91.2V43.4999C91.2 46.6999 93.6 48.5 96.7 48.5C99.8 48.5 102.1 46.6999 102.1 43.4999V27.3999H106.1V43.5999C106.1 48.9999 101.8 52.0999 96.7 52.0999C91.5 52.0999 87.2002 48.9999 87.2002 43.5999Z" fill="#00A6CA"/>
<path d="M172.5 47.8001V45.1V41.8001C172.5 40.8001 172.4 39.8 172.1 38.9001C171.8 38 171.4 37.3 170.9 36.6C170.4 36 169.7 35.5 168.8 35.1C168 34.7 167 34.5 165.8 34.5C165.2 34.5 164.7 34.5001 164.1 34.6002C163.5 34.7004 163 34.9003 162.5 35.1002C162 35.3002 161.5 35.6002 161.1 36.0001C160.7 36.4002 160.3 36.8002 160.1 37.4002C160.1 36.6001 159.9 36.0002 159.6 35.6002C159.3 35.2003 158.9 34.9002 158.4 34.7002C157.9 34.6001 157.3 34.5002 156.7 34.5002C156.1 34.5002 155.4 34.6005 154.9 34.7002V37.3002C155.3 37.3002 155.7 37.3002 155.9 37.4004C156.201 37.5005 156.3 37.6002 156.4 37.8003C156.5 38.0002 156.6 38.2003 156.6 38.5003C156.6 38.8004 156.6 39.2003 156.6 39.7003V51.6004H160.4V42.1003C160.4 41.4003 160.5 40.8003 160.7 40.3003C160.9 39.7003 161.2 39.3004 161.6 38.9004C162 38.5004 162.4 38.2004 162.9 38.0004C163.4 37.8005 164 37.7003 164.6 37.7003C165.7 37.7003 166.7 38.1003 167.4 38.8003C168.2 39.5003 168.5 40.6002 168.5 41.9002V47.6002V48.0002C168.5 52.1002 171 52.5003 174.3 51.9003V49.5002C172.8 49.6004 172.5 49.1001 172.5 47.8001Z" fill="#00A6CA"/>
<path d="M182.4 0.000115342C175.9 0.000115342 170.2 3.50014 167.2 8.80014C166.1 10.9001 165.9 12.7001 166.8 14.2001C167.8 16.0001 170.1 16.2001 171.3 16.2001H173.5L172.7 18.7001C172.2 20.2001 172.4 21.9001 173.2 23.0001C174 24.1001 175.2 24.7001 176.7 24.7001C177.7 24.7001 178.8 24.5002 179.8 24.1001C179.5 23.7002 179.3 23.3002 179.1 22.8001C179 22.4001 178.8 22.0001 178.8 21.5001C178.2 21.8002 177.5 21.9001 176.8 21.9001C176.4 21.9001 175.8 21.7999 175.5 21.3001C175.2 20.9001 175.1 20.3002 175.3 19.6002L176.4 16.2001H179.9L180.8 13.3001H177.4L178.9 8.60013H175.9L174.4 13.3001H171.2C170.2 13.3001 169.6 13.0001 169.3 12.5002C169 11.9002 169.3 10.7002 170.1 9.30014V9.19991C172.8 5.29993 177.2 2.69993 182.3 2.69993C190.4 2.69993 197 9.29994 197 17.3999C197 25.4999 190.4 32.0999 182.3 32.0999C175.1 32.0999 169.1 26.9 167.8 20.1L165 20.7C166.6 28.8 173.7 35 182.3 35C192 35 199.9 27.0999 199.9 17.3999C200 7.89993 192.1 0.000115342 182.4 0.000115342Z" fill="#00A6CA"/>
<path d="M193.6 22.4004C192.9 22.4004 192 22.3002 191.4 21.9004C191.2 21.7005 190.9 21.5004 190.8 21.0004C190.8 20.8005 190.8 20.5004 190.9 20.2004L193.1 13.5004H190.1L188.2 19.3004C187.7 20.8004 186.1 22.0004 184.7 22.0004C184.3 22.0004 183.8 21.9002 183.6 21.5004C183.4 21.2003 183.2 20.8004 183.5 20.1004L185.7 13.4004H182.7L180.8 19.2004C180.3 20.6004 180.5 22.1004 181.3 23.2004C182.1 24.2004 183.2 24.8005 184.7 24.8005C186.1 24.8005 187.6 24.2004 188.8 23.2004C189.2 23.8004 189.7 24.2004 190.4 24.5004C191.4 24.8005 192 24.8006 192.7 24.8006C193 24.8006 193.4 24.7003 193.5 24.7003C193.6 24.6002 193.6 24.5005 193.7 24.4003C193.8 24.2004 193.9 24.0003 194 23.8003C194.1 23.6004 194.2 23.4003 194.3 23.2003C194.4 23.0004 194.5 22.8003 194.6 22.6003C194.7 22.5001 194.7 22.3002 194.8 22.2003C194.5 22.4002 194.1 22.4004 193.6 22.4004Z" fill="#00A6CA"/>
<path d="M176.4 49.7998C176.4 46.7998 180.9 46.7998 180.9 49.7998C180.9 52.7998 176.4 52.7998 176.4 49.7998ZM180.5 49.7998C180.5 47.1998 176.8 47.1998 176.8 49.7998C176.8 52.3998 180.5 52.3998 180.5 49.7998ZM179.6 50.7998L179.2 50.9001L178.6 50.1H178.1V50.9001H177.8V48.7H178.7C179.1 48.7 179.5 49.0001 179.5 49.4C179.5 49.7001 179.3 50 179 50L179.6 50.7998ZM178.2 49.7998H178.7C179 49.7998 179.2 49.5998 179.2 49.3998C179.2 49.0997 179 48.9999 178.7 48.9999H178.2V49.7998Z" fill="#00A6CA"/>
</svg>
